<svg xmlns="http://www.w3.org/2000/svg" width="30.059" height="25" viewBox="0 0 30.059 25">
  <path id="Caminho_1079" data-name="Caminho 1079" d="M2361.982,218.718H2336.73a2.4,2.4,0,0,0-2.4,2.4v16a2.4,2.4,0,0,0,2.4,2.4h12.314a1.761,1.761,0,0,1,.786.186l8.006,4v-3.864a.325.325,0,0,1,.325-.325h3.821a2.4,2.4,0,0,0,2.4-2.4v-16A2.4,2.4,0,0,0,2361.982,218.718Zm-9.656,12h-12.468a1.274,1.274,0,0,1-1.116-1.36,1.151,1.151,0,0,1,1.156-.989h12.39a1.151,1.151,0,0,1,1.156.989A1.274,1.274,0,0,1,2352.327,230.716Zm6.236-5.341H2339.9a1.15,1.15,0,0,1-1.154-.977,1.126,1.126,0,0,1,1.115-1.272h18.665a1.151,1.151,0,0,1,1.154.976A1.126,1.126,0,0,1,2358.562,225.374Z" transform="translate(-2334.327 -218.718)" fill="#fff"/>
</svg>
