<svg id="Grupo_752" data-name="Grupo 752" xmlns="http://www.w3.org/2000/svg" width="27.999" height="26.772" viewBox="0 0 27.999 26.772">
  <path id="Caminho_1093" data-name="Caminho 1093" d="M-19.65,16.392a5.938,5.938,0,0,0-5.41,2.983V16.816h-6c.075,1.64,0,17.379,0,18.047h6V24.787a3.961,3.961,0,0,1,.2-1.463,3.741,3.741,0,0,1,1.081-1.5,3.072,3.072,0,0,1,2-.691,3.146,3.146,0,0,1,1.4.293,2.485,2.485,0,0,1,.938.838,5.221,5.221,0,0,1,.707,2.95v9.661h5.994V24.518C-12.742,19.431-15.326,16.392-19.65,16.392Zm-5.4,3.039h-.038a.338.338,0,0,1,.018-.03l.02-.03Z" transform="translate(40.741 -8.1)" fill="#fff"/>
  <path id="Caminho_1094" data-name="Caminho 1094" d="M-34,10.528a3.072,3.072,0,0,0-.522,0,3.127,3.127,0,0,0-3.389,2.843,3.127,3.127,0,0,0,2.843,3.389,3.052,3.052,0,0,0,.468.006h.035a3.131,3.131,0,0,0,3.4-2.835A3.132,3.132,0,0,0-34,10.528Z" transform="translate(37.922 -10.513)" fill="#fff"/>
  <rect id="Retângulo_630" data-name="Retângulo 630" width="5.993" height="18.056" transform="translate(0.36 8.716)" fill="#fff"/>
</svg>
