<svg xmlns="http://www.w3.org/2000/svg" width="24" height="24" viewBox="0 0 24 24">
  <path id="Caminho_1092" data-name="Caminho 1092" d="M-1480.723,11.5c-6.761,0-12,4.952-12,11.64a11.388,11.388,0,0,0,3.769,8.61.967.967,0,0,1,.324.683l.065,2.134a.962.962,0,0,0,1.347.85l2.381-1.05a.958.958,0,0,1,.64-.048,13.052,13.052,0,0,0,3.475.461c6.76,0,12-4.952,12-11.64S-1473.962,11.5-1480.723,11.5Zm7.2,8.958-3.523,5.59a1.8,1.8,0,0,1-2.6.48l-2.8-2.1a.721.721,0,0,0-.867,0L-1487.1,27.3a.57.57,0,0,1-.826-.758l3.525-5.592a1.8,1.8,0,0,1,2.6-.48l2.8,2.1a.721.721,0,0,0,.867,0l3.786-2.873A.57.57,0,0,1-1473.518,20.458Z" transform="translate(1492.723 -11.5)" fill="#fff" fill-rule="evenodd"/>
</svg>
