<svg xmlns="http://www.w3.org/2000/svg" width="14.929" height="15" viewBox="0 0 14.929 15">
  <path id="Caminho_1091" data-name="Caminho 1091" d="M-4925.342-3399.443a1.341,1.341,0,0,0,.415-.925,1.255,1.255,0,0,0-.416-.9l0,0-1.961-1.968a1.207,1.207,0,0,0-.881-.414,1.267,1.267,0,0,0-.9.418l-1.353,1.348-.474-.241-.089-.046c-.137-.068-.266-.133-.382-.205l-.006,0a12.67,12.67,0,0,1-3.035-2.763l-.006-.008a8.039,8.039,0,0,1-.923-1.412l-.234-.472.382-.362c.206-.194.4-.4.6-.592l.079-.079.148-.15,0,0,.148-.15a1.33,1.33,0,0,0,.431-.917,1.331,1.331,0,0,0-.431-.917l-.972-.972c-.111-.112-.226-.227-.339-.346-.2-.209-.42-.431-.646-.639l-.017-.016a1.23,1.23,0,0,0-.877-.392,1.285,1.285,0,0,0-.9.393l-1.215,1.225a2.152,2.152,0,0,0-.646,1.382,5.832,5.832,0,0,0,.43,2.448,14.912,14.912,0,0,0,2.648,4.413,16.315,16.315,0,0,0,5.428,4.251,8.332,8.332,0,0,0,2.965.882c.075,0,.141.006.2.006a2.228,2.228,0,0,0,1.718-.729l.018-.021a7.821,7.821,0,0,1,.6-.621l.052-.05C-4925.611-3399.169-4925.469-3399.31-4925.342-3399.443Z" transform="translate(4939.856 3412.577)" fill="#f94558"/>
</svg>
