<svg xmlns="http://www.w3.org/2000/svg" width="28" height="22.758" viewBox="0 0 28 22.758">
  <path id="Caminho_1097" data-name="Caminho 1097" d="M-58.219,14.633a11.508,11.508,0,0,1-3.3.9,5.733,5.733,0,0,0,2.526-3.178,11.532,11.532,0,0,1-3.647,1.394,5.75,5.75,0,0,0-8.126-.26,5.746,5.746,0,0,0-1.816,4.191,5.843,5.843,0,0,0,.15,1.309,16.36,16.36,0,0,1-11.841-6A5.752,5.752,0,0,0-82.5,20.659a5.793,5.793,0,0,1-2.6-.721v.072a5.757,5.757,0,0,0,4.608,5.633,5.71,5.71,0,0,1-1.513.2,5.675,5.675,0,0,1-1.081-.1,5.735,5.735,0,0,0,5.365,3.989A11.444,11.444,0,0,1-84.852,32.2a12.3,12.3,0,0,1-1.367-.08A16.342,16.342,0,0,0-63.647,27.16a16.344,16.344,0,0,0,2.578-8.81c0-.251,0-.5-.018-.746A11.507,11.507,0,0,0-58.219,14.633Z" transform="translate(86.219 -11.935)" fill="#fff"/>
</svg>
