<svg xmlns="http://www.w3.org/2000/svg" width="24" height="23.997" viewBox="0 0 24 23.997">
  <g id="Grupo_750" data-name="Grupo 750" transform="translate(-231.258 -519.262)">
    <path id="Caminho_788" data-name="Caminho 788" d="M255.2,529.8c-.038-.292-.074-.583-.128-.871a11.527,11.527,0,0,0-4.708-7.458,11.655,11.655,0,0,0-5.7-2.159l-.474-.054h-1.428l-.026,0-.426.051c-.295.035-.6.077-.9.134a11.616,11.616,0,0,0-8.8,7.036,10.99,10.99,0,0,0-.861,5.358,11.3,11.3,0,0,0,1.486,4.833l.048.464q-.7,2.023-1.38,4.048l-.522,1.547-.051.131-.064.256.291.134.464-.16.81-.275,1.653-.525c1.063-.336,2.127-.673,3.19-1.018l.391.038a11.564,11.564,0,0,0,17.047-8.727l.109-.692.032-.144.013-.064v-1.48Zm-19.9,8.259c.141-.407.279-.813.407-1.223l-.067-.48a9.42,9.42,0,0,1-.5-10.018,9.5,9.5,0,0,1,3.709-3.67,9.567,9.567,0,0,1,10.687.967,9.458,9.458,0,0,1-4.8,16.695,9.377,9.377,0,0,1-6.312-1.361l-.356-.109-.234.039c-.893.291-1.79.573-2.713.868l-.442.138Z" transform="translate(0)" fill="#fff"/>
    <path id="Caminho_789" data-name="Caminho 789" d="M234.759,527.589a12.942,12.942,0,0,0,2.706,2.8,12.081,12.081,0,0,0,3.718,1.707,3.594,3.594,0,0,0,1.057.17,2.855,2.855,0,0,0,1.146-.234,2.4,2.4,0,0,0,1.774-2.472l-.307-.561-.625-.295q-.869-.418-1.752-.823a.6.6,0,0,0-.826.227l-.24.3-.391.487c-.365.432-.365.432-.9.2a7.4,7.4,0,0,1-3.459-3.062l.035-.452.035-.038.528-.65a1,1,0,0,0,.119-1.1c-.24-.506-.48-1.076-.756-1.787-.109-.285-.343-.948-1.073-.772a1.378,1.378,0,0,0-1.294.432,3.419,3.419,0,0,0-.8,3.635A8.13,8.13,0,0,0,234.759,527.589Z" transform="translate(4.393 4.288)" fill="#fff"/>
  </g>
</svg>
